<svg xmlns="http://www.w3.org/2000/svg" width="35.693" height="35.693" viewBox="0 0 35.693 35.693"><path d="M21.679,15.97v5.665a.252.252,0,0,1-.255.255h-.908a.264.264,0,0,1-.207-.1l-2.6-3.506v3.362a.252.252,0,0,1-.255.255h-.908a.252.252,0,0,1-.255-.255V15.978a.252.252,0,0,1,.255-.255h.9a.24.24,0,0,1,.207.112l2.6,3.506V15.978a.252.252,0,0,1,.255-.255h.908a.252.252,0,0,1,.263.247Zm-6.533-.255h-.908a.252.252,0,0,0-.255.255v5.665a.252.252,0,0,0,.255.255h.908a.252.252,0,0,0,.255-.255V15.97a.257.257,0,0,0-.255-.255Zm-2.191,4.748H10.477V15.97a.252.252,0,0,0-.255-.255H9.314a.252.252,0,0,0-.255.255v5.665a.234.234,0,0,0,.072.175.269.269,0,0,0,.175.072h3.641a.252.252,0,0,0,.255-.255v-.908a.255.255,0,0,0-.247-.255Zm13.5-4.748H22.818a.257.257,0,0,0-.255.255v5.665a.257.257,0,0,0,.255.255h3.641a.252.252,0,0,0,.255-.255v-.908a.252.252,0,0,0-.255-.255H23.981v-.956h2.478a.252.252,0,0,0,.255-.255v-.916a.252.252,0,0,0-.255-.255H23.981v-.956h2.478a.252.252,0,0,0,.255-.255V15.97a.268.268,0,0,0-.255-.255Zm9.234-6.955V31.49a6.489,6.489,0,0,1-6.509,6.453H6.453A6.5,6.5,0,0,1,0,31.434V8.7A6.5,6.5,0,0,1,6.509,2.25H29.24A6.489,6.489,0,0,1,35.693,8.759Zm-4.908,9.768c0-5.816-5.832-10.549-12.995-10.549S4.8,12.711,4.8,18.527c0,5.211,4.621,9.577,10.867,10.405,1.522.327,1.346.884,1,2.932-.056.327-.263,1.283,1.123.7S25.272,28.16,28,25.02A9.413,9.413,0,0,0,30.786,18.527Z" transform="translate(0 -2.25)" fill="#98947c"/></svg>